<svg width="47" height="48" viewBox="0 0 47 48" fill="none" xmlns="http://www.w3.org/2000/svg">
<path d="M38.3996 6H23.0396C21.9836 6 21.1196 6.9 21.1196 8V11.22C21.1196 11.22 21.1196 11.22 21.1388 11.24L30.7388 20.24C31.9484 21.36 32.6396 23 32.6396 24.7V26H36.4796V30H32.6396V34H36.4796V38H32.6396V42H38.3996C39.4556 42 40.3196 41.1 40.3196 40V8C40.3196 6.9 39.4556 6 38.3996 6ZM28.7996 14H24.9596V10H28.7996V14ZM36.4796 22H32.6396V18H36.4796V22ZM36.4796 14H32.6396V10H36.4796V14Z" fill="#1D3557"/>
<path d="M28.7998 40V24.7C28.7998 24.14 28.5694 23.6 28.1662 23.22L18.5662 14.22C18.2014 13.86 17.7406 13.7 17.2798 13.7C16.819 13.7 16.3582 13.88 15.9934 14.22L6.39337 23.22C5.99017 23.58 5.75977 24.12 5.75977 24.7V40C5.75977 41.1 6.62377 42 7.67977 42H11.5198C12.5758 42 13.4398 41.1 13.4398 40V32H21.1198V40C21.1198 41.1 21.9838 42 23.0398 42H26.8798C27.9358 42 28.7998 41.1 28.7998 40Z" fill="#1D3557"/>
</svg>
